:SAMPLES-PER-SECOND 30
:FULLY-SPECIFIED
:DEGREES
726
root  -24.7025 38.7759 14.7729 -4.66504 72.6814 0.255188
RightUpLeg  20.0529 -12.4939 -3.11816
RightLeg  11.5582 3.04429 2.49691
RightFoot  -19.9534 0.0797028 2.78663
RightToes  5.23868e-010 0 -3.6325e-017
Spine  5.83052 1.47435 7.68212
Spine1  11.6926 3.8854 -7.09816
HEad  -20 8.98791 -4.27066
LeftShoulder1  0.252403 2.8334 -31.5622
LeftArm  -1.3817 20.804 -39.7539
LeftForeArm  32.0117 -9.67383 -8.57999
LeftHand  0.0489166 3.39958 -4.06532
RightShoulder  -0.533992 -5.03848 27.9925
RightArm  18.8307 3.33268 50.4986
RightForeArm  4.47652 7.99216 9.36987
RightHand  -0.67914 2.88857 -9.72169
LeftUpLeg  -15.2873 1.02962 -5.8432
LeftLeg  7.28713 5.72202 -0.596994
LeftFoot  7.746 -1.26549 7.34012
LeftToes  -4.9204e-010 1.02043e-011 -1.81609e-011
727
root  -23.4795 38.6114 15.3104 -0.827881 72.6046 4.96365
RightUpLeg  19.851 -14.3306 -5.69853
RightLeg  18.2665 6.31114 2.14784
RightFoot  -20.3714 0.413725 6.95876
RightToes  5.23868e-010 0 -3.6325e-017
Spine  6.53238 1.70449 4.89738
Spine1  11.2535 3.88446 -7.10296
HEad  -19.8732 9.7541 -3.79752
LeftShoulder1  0.150968 3.10532 -31.7587
LeftArm  -2.27322 19.7905 -38.6686
LeftForeArm  31.6857 -8.53708 -8.62748
LeftHand  0.0123109 3.94871 -3.00057
RightShoulder  -0.544355 -5.03981 28.6207
RightArm  16.5527 1.90081 49.7319
RightForeArm  6.24966 5.53375 9.07891
RightHand  -0.547797 2.1335 -8.65176
LeftUpLeg  -15.7778 2.30049 -7.75752
LeftLeg  13.3798 4.41577 0.439571
LeftFoot  6.84351 -1.76106 10.7006
LeftToes  -4.9204e-010 1.02043e-011 -1.81609e-011
728
root  -22.3038 38.5336 15.7796 2.61548 72.5639 8.81442
RightUpLeg  16.7601 -12.6913 -7.12935
RightLeg  28.2702 6.44461 3.48778
RightFoot  -17.5382 0.542672 12.9797
RightToes  5.23868e-010 0 -3.6325e-017
Spine  6.81957 1.88529 3.1062
Spine1  10.8216 3.92833 -7.69128
HEad  -18.7309 10.1348 -3.34075
LeftShoulder1  0.192474 2.99531 -31.7467
LeftArm  -4.4654 17.6497 -38.2948
LeftForeArm  31.422 -6.10622 -8.22471
LeftHand  0.00787282 4.22651 -3.31973
RightShoulder  -0.586018 -5.14775 28.8728
RightArm  15.2159 0.152292 49.3366
RightForeArm  7.20584 4.08807 8.54552
RightHand  -0.459885 0.745618 -8.80368
LeftUpLeg  -15.3916 3.61563 -9.21189
LeftLeg  17.1507 3.65088 1.10828
LeftFoot  3.76332 -1.44743 10.7265
LeftToes  -4.9204e-010 1.02043e-011 -1.81609e-011
729
root  -21.2138 38.5422 16.1198 3.79919 71.6821 10.3279
RightUpLeg  11.1637 -9.52166 -7.67635
RightLeg  40.4364 5.81827 5.02681
RightFoot  -9.12216 -0.369537 17.8557
RightToes  5.23868e-010 0 -3.6325e-017
Spine  7.69199 2.05826 3.04492
Spine1  10.0079 4.24466 -9.41969
HEad  -17.8821 10.6551 -4.07024
LeftShoulder1  0.261215 2.80907 -31.5038
LeftArm  -5.18219 15.6691 -38.5403
LeftForeArm  29.1308 -4.7763 -7.81295
LeftHand  -0.0216941 4.92305 -1.75933
RightShoulder  -0.485448 -4.89887 27.9077
RightArm  13.3601 -1.55739 49.9714
RightForeArm  7.72077 2.96955 7.82641
RightHand  -0.432784 0.136718 -9.12817
LeftUpLeg  -14.2912 4.32996 -9.65784
LeftLeg  19.3097 3.95686 1.34697
LeftFoot  0.955473 -1.228 11.2899
LeftToes  -4.9204e-010 1.02043e-011 -1.81609e-011
730
root  -20.1539 38.6087 16.4694 5.76062 70.6106 12.7155
RightUpLeg  4.46655 -6.33874 -8.67164
RightLeg  52.098 5.33224 6.98761
RightFoot  2.98295 -1.91014 15.5436
RightToes  5.23868e-010 0 -3.6325e-017
Spine  8.33192 2.05075 1.76022
Spine1  9.41654 4.09813 -9.9672
HEad  -17.3419 12.1959 -4.78858
LeftShoulder1  0.288096 2.73302 -31.2857
LeftArm  -5.28508 14.0005 -38.7191
LeftForeArm  27.4118 -5.46547 -7.80745
LeftHand  -0.030615 5.31573 -2.00986
RightShoulder  -0.374696 -4.60215 27.0983
RightArm  13.4822 -1.70858 50.2677
RightForeArm  6.58928 2.63149 7.9365
RightHand  -0.481741 0.324223 -9.84298
LeftUpLeg  -12.4148 4.84293 -10.2394
LeftLeg  20.0122 4.67454 1.42782
LeftFoot  -1.30626 -0.963359 11.0205
LeftToes  -4.9204e-010 1.02043e-011 -1.81609e-011
731
root  -19.126 38.6551 16.8223 7.11755 70.4553 14.5694
RightUpLeg  -1.06967 -4.19449 -9.41911
RightLeg  60.244 4.9934 8.85788
RightFoot  9.61595 -2.26359 12.4374
RightToes  5.23868e-010 0 -3.6325e-017
Spine  8.47125 1.85545 -0.465046
Spine1  9.70536 3.21758 -8.7863
HEad  -17.0027 13.3485 -5.85652
LeftShoulder1  0.24028 2.8703 -31.8149
LeftArm  -4.85785 11.2271 -38.6864
LeftForeArm  27.3419 -6.22672 -8.13473
LeftHand  -0.0220118 4.66078 -2.07998
RightShoulder  -0.379172 -4.61875 26.98
RightArm  14.026 -1.05943 49.2784
RightForeArm  6.45996 3.87973 8.04451
RightHand  -0.448319 0.423028 -9.10494
LeftUpLeg  -10.3886 4.84876 -10.6157
LeftLeg  20.6687 4.91402 1.31603
LeftFoot  -3.45296 -0.718747 10.6992
LeftToes  -4.9204e-010 1.02043e-011 -1.81609e-011
732
root  -18.0886 38.8122 17.1733 6.32715 70.8944 14.0736
RightUpLeg  -5.72709 -2.80406 -9.28485
RightLeg  65.0387 3.97002 8.68747
RightFoot  6.01898 -1.8331 12.2368
RightToes  5.23868e-010 0 -3.6325e-017
Spine  8.20512 1.28885 -1.54451
Spine1  10.2882 2.15931 -7.56507
HEad  -17.1439 14.6084 -6.37486
LeftShoulder1  0.222387 2.91528 -31.6706
LeftArm  -4.66806 8.24856 -39.3816
LeftForeArm  26.3968 -7.19536 -8.28898
LeftHand  -0.0311937 5.06581 -0.265581
RightShoulder  -0.41042 -4.70819 27.1122
RightArm  14.2833 -0.151382 48.3363
RightForeArm  5.16083 5.94093 8.02825
RightHand  -0.581766 2.63603 -8.58948
LeftUpLeg  -7.83129 4.5184 -10.1752
LeftLeg  20.2135 4.93539 1.1459
LeftFoot  -5.07011 -0.543177 10.4376
LeftToes  -4.9204e-010 1.02043e-011 -1.81609e-011
733
root  -17.0906 38.9248 17.546 4.99487 71.8647 13.14
RightUpLeg  -9.81255 -2.103 -8.97847
RightLeg  66.7928 3.33532 7.88823
RightFoot  5.23187 -1.6276 11.3943
RightToes  5.23868e-010 0 -3.6325e-017
Spine  8.76282 0.762989 -2.43799
Spine1  9.80338 1.097 -6.35983
HEad  -15.8441 16.5272 -6.39096
LeftShoulder1  0.234525 2.87265 -31.0839
LeftArm  -4.19831 5.78005 -40.4041
LeftForeArm  25.244 -9.07817 -8.02805
LeftHand  -0.0218033 4.36234 -0.155361
RightShoulder  -0.404518 -4.69728 26.9132
RightArm  13.94 -0.632255 47.8067
RightForeArm  3.45618 8.89825 7.54935
RightHand  -0.653387 3.2388 -9.02002
LeftUpLeg  -5.30755 4.55057 -9.50543
LeftLeg  20.0157 4.11637 0.911605
LeftFoot  -6.73909 -0.364345 10.051
LeftToes  -4.9204e-010 1.02043e-011 -1.81609e-011
734
root  -16.0764 39.0764 17.9164 3.25452 73.0541 11.5177
RightUpLeg  -13.3191 -1.2159 -8.2422
RightLeg  65.3002 2.90613 6.30157
RightFoot  4.60414 -1.43759 10.4599
RightToes  5.23868e-010 0 -3.6325e-017
Spine  8.83909 0.180379 -2.7919
Spine1  9.42159 0.203975 -5.14481
HEad  -15.2724 16.5714 -5.37115
LeftShoulder1  0.299667 2.68192 -30.3346
LeftArm  -1.71988 3.92582 -41.5243
LeftForeArm  21.6035 -12.6674 -7.38773
LeftHand  -0.0227299 4.00174 0.0180921
RightShoulder  -0.360568 -4.57796 26.5162
RightArm  14.4665 -0.846226 47.7129
RightForeArm  0.699243 11.5768 7.01041
RightHand  -0.67977 3.59366 -9.01581
LeftUpLeg  -2.65864 4.84666 -8.51108
LeftLeg  19.082 2.8074 0.43287
LeftFoot  -8.01696 -0.237635 9.84749
LeftToes  -4.9204e-010 1.02043e-011 -1.81609e-011
735
root  -15.0551 39.1847 18.255 1.90906 74.1367 10.3088
RightUpLeg  -16.0434 -0.643819 -7.99853
RightLeg  61.0719 3.02256 5.43455
RightFoot  3.96998 -1.06159 8.09521
RightToes  5.23868e-010 0 -3.6325e-017
Spine  8.94305 -0.292649 -2.92082
Spine1  9.0534 -0.420178 -4.32665
HEad  -15.0846 16.54 -4.80582
LeftShoulder1  0.318524 2.6129 -29.6557
LeftArm  1.84907 2.20247 -42.4601
LeftForeArm  16.5336 -16.9674 -5.982
LeftHand  -0.0395527 3.62345 1.38937
RightShoulder  -0.363436 -4.59258 26.3379
RightArm  14.9391 -1.03693 47.7917
RightForeArm  -1.41074 13.8353 6.41055
RightHand  -0.713287 4.30893 -8.80492
LeftUpLeg  -0.0556917 5.32262 -7.61975
LeftLeg  18.1726 1.25581 -0.123259
LeftFoot  -9.20296 -0.131592 9.99002
LeftToes  -4.9204e-010 1.02043e-011 -1.81609e-011
736
root  -14.0364 39.2234 18.6188 0.536255 75.1762 8.9859
RightUpLeg  -17.6976 -0.0662838 -7.71517
RightLeg  53.9833 3.07244 4.16251
RightFoot  2.38968 -0.996842 8.40472
RightToes  5.23868e-010 0 -3.6325e-017
Spine  8.75384 -0.646083 -2.91743
Spine1  9.18039 -0.848188 -3.65277
HEad  -14.09 17.9102 -4.40626
LeftShoulder1  0.355503 2.49495 -29.1131
LeftArm  4.26136 0.46623 -43.1283
LeftForeArm  13.1159 -21.5122 -4.58473
LeftHand  -0.0569283 2.93843 2.01735
RightShoulder  -0.354922 -4.57026 26.2081
RightArm  15.3603 -0.852384 47.9039
RightForeArm  -1.09729 15.4724 5.90855
RightHand  -0.596394 4.57321 -7.23585
LeftUpLeg  2.18325 5.98692 -6.59157
LeftLeg  17.7843 -0.406925 -0.645471
LeftFoot  -10.6119 0.000475443 9.94562
LeftToes  -4.9204e-010 1.02043e-011 -1.81609e-011
737
root  -13.0155 39.2328 18.9751 -0.325195 76.1983 8.17773
RightUpLeg  -18.0035 0.145381 -7.68602
RightLeg  44.1382 3.07162 2.90734
RightFoot  1.39185 -1.00393 9.06664
RightToes  5.23868e-010 0 -3.6325e-017
Spine  8.59557 -0.866366 -3.04923
Spine1  9.20045 -1.21187 -2.55386
HEad  -13.3806 17.4581 -3.99949
LeftShoulder1  0.335296 2.56195 -29.4769
LeftArm  3.32607 -1.30602 -42.9178
LeftForeArm  14.3532 -25.6074 -4.65264
LeftHand  -0.0781596 2.11815 2.42201
RightShoulder  -0.293028 -4.38993 25.855
RightArm  15.4897 -0.854902 48.2884
RightForeArm  -1.85777 16.5561 5.63578
RightHand  -0.687649 4.47186 -8.34292
LeftUpLeg  4.49252 6.44156 -5.74087
LeftLeg  17.1971 -1.89894 -1.01797
LeftFoot  -11.936 0.123697 9.92147
LeftToes  -4.9204e-010 1.02043e-011 -1.81609e-011
